<svg width="9" height="13" viewBox="0 0 9 13" fill="none" xmlns="http://www.w3.org/2000/svg">
<path d="M2.98159 0.541315C2.88699 0.451681 2.75903 0.401369 2.62564 0.401369C2.49226 0.401369 2.36429 0.451681 2.26969 0.541315L0.979992 1.77752C0.933569 1.82145 0.896725 1.87371 0.871583 1.93128C0.84644 1.98885 0.833496 2.05059 0.833496 2.11294C0.833496 2.1753 0.84644 2.23704 0.871583 2.29461C0.896725 2.35218 0.933569 2.40444 0.979992 2.44837L5.13169 6.41005L0.979992 10.364C0.933569 10.4079 0.896725 10.4602 0.871583 10.5178C0.84644 10.5753 0.833496 10.6371 0.833496 10.6994C0.833496 10.7618 0.84644 10.8235 0.871583 10.8811C0.896725 10.9387 0.933569 10.9909 0.979992 11.0349L2.26969 12.2719C2.36429 12.3616 2.49226 12.4119 2.62564 12.4119C2.75903 12.4119 2.88699 12.3616 2.98159 12.2719L8.77579 6.74205C8.8229 6.69804 8.86032 6.64551 8.88586 6.58755C8.91141 6.52958 8.92457 6.46734 8.92457 6.40447C8.92457 6.3416 8.91141 6.27936 8.88586 6.2214C8.86032 6.16343 8.8229 6.11091 8.77579 6.0669L2.98159 0.541315Z" fill="white"/>
</svg>
