<svg width="9" height="13" viewBox="0 0 9 13" fill="none" xmlns="http://www.w3.org/2000/svg">
<path d="M6.0184 12.2036C6.113 12.2932 6.24096 12.3435 6.37435 12.3435C6.50773 12.3435 6.6357 12.2932 6.7303 12.2036L8.02 10.9674C8.06642 10.9234 8.10326 10.8712 8.12841 10.8136C8.15355 10.756 8.16649 10.6943 8.16649 10.6319C8.16649 10.5696 8.15355 10.5078 8.12841 10.4503C8.10326 10.3927 8.06642 10.3404 8.02 10.2965L3.8683 6.33482L8.02 2.38087C8.06642 2.33693 8.10326 2.28468 8.12841 2.22711C8.15355 2.16954 8.16649 2.1078 8.16649 2.04544C8.16649 1.98308 8.15355 1.92134 8.12841 1.86377C8.10326 1.80621 8.06642 1.75395 8.02 1.71001L6.7303 0.472953C6.6357 0.383319 6.50773 0.333008 6.37435 0.333008C6.24096 0.333008 6.113 0.383319 6.0184 0.472953L0.224196 6.00283C0.177092 6.04684 0.139671 6.09936 0.114124 6.15732C0.088578 6.21529 0.0754194 6.27753 0.0754194 6.3404C0.0754194 6.40327 0.088578 6.46551 0.114124 6.52348C0.139671 6.58144 0.177092 6.63397 0.224196 6.67797L6.0184 12.2036Z" fill="white"/>
</svg>
